# xmcd
#
# Track frame offsets: 
#        150
#        12713
#        31696
#        44968
#        62164
#        77223
#        90315
#        111034
#        130082
#        142008
#        159475
#        177112
#        194955
#        213989
#        236467
#        247371
#        263997
#        276791
#        290285
#        303908
#
# Disc length: 4313 seconds
#
# Revision: 3
# Processed by: cddbd v1.5.1PL2 Copyright (c) Steve Scherf et al.
# Submitted via: ExactAudioCopy v0.90b4
#
DISCID=2c10d714
DTITLE=Emmylou Harris - Singin' With Emmylou - Volume 1
DYEAR=2000
DGENRE=Country
TTITLE0=Angel Eyes (Angel Eyes) - with Willie Nelson
TTITLE1=Only The Heart May Know - with Dan Fogelberg
TTITLE2=That's All It Took (Live) - with Fallen Angels
TTITLE3=What Could Have Been - with Kathy Mattea
TTITLE4=Oh Carolina - with Vince Gill
TTITLE5=Here We Are - with George Jones
TTITLE6=Woman Walk The Line - with Trisha Yearwood
TTITLE7=Walk Through The Bottomland - with Lyle Lovett
TTITLE8=You Are - with Glen Campbell
TTITLE9=Spanish Johnny - with Waylon Jennings
TTITLE10=Mexican Wind - with Jann Browne
TTITLE11=Anyhow, I Love You - with Guy Clark
TTITLE12=Just Like You - with Jon Randall
TTITLE13=Nobody's - with David Bromberg Band
TTITLE14=Just Can't Believe It - with Pure Prairie League
TTITLE15=Rachel - with Gary Stewart
TTITLE16=Our Baby's Gone - with Herb Pedersen
TTITLE17=Hometown Blues - with Rosanne Cash
TTITLE18=Streets Of This Town (Ode To Fernwood) - with Mary Kay Place
TTITLE19=Fourteen Days - with Steve Goodman
EXTD=
EXTT0=
EXTT1=
EXTT2=
EXTT3=
EXTT4=
EXTT5=
EXTT6=
EXTT7=
EXTT8=
EXTT9=
EXTT10=
EXTT11=
EXTT12=
EXTT13=
EXTT14=
EXTT15=
EXTT16=
EXTT17=
EXTT18=
EXTT19=
PLAYORDER=
